<svg width="131" height="24" viewBox="0 0 131 24" fill="none" xmlns="http://www.w3.org/2000/svg">
<path d="M5.214 17L0.93 7.2H2.904L6.726 16.062H5.592L9.456 7.2H11.276L7.006 17H5.214ZM12.2105 17V9.524H13.9605V17H12.2105ZM13.0925 8.292C12.7658 8.292 12.4952 8.18933 12.2805 7.984C12.0752 7.77867 11.9725 7.53133 11.9725 7.242C11.9725 6.94333 12.0752 6.696 12.2805 6.5C12.4952 6.29467 12.7658 6.192 13.0925 6.192C13.4192 6.192 13.6852 6.29 13.8905 6.486C14.1052 6.67267 14.2125 6.91067 14.2125 7.2C14.2125 7.508 14.1098 7.76933 13.9045 7.984C13.6992 8.18933 13.4285 8.292 13.0925 8.292ZM19.7714 17.098C18.9407 17.098 18.2127 16.9347 17.5874 16.608C16.9714 16.272 16.4907 15.8147 16.1454 15.236C15.8094 14.6573 15.6414 13.9993 15.6414 13.262C15.6414 12.5153 15.8047 11.8573 16.1314 11.288C16.4674 10.7093 16.9247 10.2567 17.5034 9.93C18.0914 9.60333 18.7587 9.44 19.5054 9.44C20.2334 9.44 20.882 9.59867 21.4514 9.916C22.0207 10.2333 22.4687 10.6813 22.7954 11.26C23.122 11.8387 23.2854 12.52 23.2854 13.304C23.2854 13.3787 23.2807 13.4627 23.2714 13.556C23.2714 13.6493 23.2667 13.738 23.2574 13.822H17.0274V12.66H22.3334L21.6474 13.024C21.6567 12.5947 21.568 12.2167 21.3814 11.89C21.1947 11.5633 20.938 11.3067 20.6114 11.12C20.294 10.9333 19.9254 10.84 19.5054 10.84C19.076 10.84 18.698 10.9333 18.3714 11.12C18.054 11.3067 17.802 11.568 17.6154 11.904C17.438 12.2307 17.3494 12.618 17.3494 13.066V13.346C17.3494 13.794 17.452 14.1907 17.6574 14.536C17.8627 14.8813 18.152 15.1473 18.5254 15.334C18.8987 15.5207 19.328 15.614 19.8134 15.614C20.2334 15.614 20.6114 15.5487 20.9474 15.418C21.2834 15.2873 21.582 15.082 21.8434 14.802L22.7814 15.88C22.4454 16.272 22.0207 16.5753 21.5074 16.79C21.0034 16.9953 20.4247 17.098 19.7714 17.098ZM26.4816 17L23.7376 9.524H25.3896L27.7416 16.118H26.9576L29.4216 9.524H30.8916L33.2856 16.118H32.5156L34.9376 9.524H36.4916L33.7336 17H32.0536L29.8696 11.162H30.3876L28.1616 17H26.4816ZM44.994 17.098C44.21 17.098 43.51 16.9347 42.894 16.608C42.2873 16.272 41.8113 15.8147 41.466 15.236C41.1207 14.6573 40.948 13.9993 40.948 13.262C40.948 12.5153 41.1207 11.8573 41.466 11.288C41.8113 10.7093 42.2873 10.2567 42.894 9.93C43.51 9.60333 44.21 9.44 44.994 9.44C45.722 9.44 46.3613 9.58933 46.912 9.888C47.472 10.1773 47.8967 10.6067 48.186 11.176L46.842 11.96C46.618 11.6053 46.3427 11.344 46.016 11.176C45.6987 11.008 45.3533 10.924 44.98 10.924C44.5507 10.924 44.1633 11.0173 43.818 11.204C43.4727 11.3907 43.202 11.6613 43.006 12.016C42.81 12.3613 42.712 12.7767 42.712 13.262C42.712 13.7473 42.81 14.1673 43.006 14.522C43.202 14.8673 43.4727 15.1333 43.818 15.32C44.1633 15.5067 44.5507 15.6 44.98 15.6C45.3533 15.6 45.6987 15.516 46.016 15.348C46.3427 15.18 46.618 14.9187 46.842 14.564L48.186 15.348C47.8967 15.908 47.472 16.342 46.912 16.65C46.3613 16.9487 45.722 17.098 44.994 17.098ZM54.3048 17V15.488L54.2068 15.166V12.52C54.2068 12.0067 54.0528 11.61 53.7448 11.33C53.4368 11.0407 52.9701 10.896 52.3448 10.896C51.9248 10.896 51.5094 10.9613 51.0988 11.092C50.6974 11.2227 50.3568 11.4047 50.0768 11.638L49.3908 10.364C49.7921 10.056 50.2681 9.82733 50.8188 9.678C51.3788 9.51933 51.9574 9.44 52.5548 9.44C53.6374 9.44 54.4728 9.70133 55.0608 10.224C55.6581 10.7373 55.9568 11.5353 55.9568 12.618V17H54.3048ZM51.9528 17.098C51.3928 17.098 50.9028 17.0047 50.4828 16.818C50.0628 16.622 49.7361 16.356 49.5028 16.02C49.2788 15.6747 49.1668 15.2873 49.1668 14.858C49.1668 14.438 49.2648 14.06 49.4608 13.724C49.6661 13.388 49.9974 13.122 50.4548 12.926C50.9121 12.73 51.5188 12.632 52.2748 12.632H54.4448V13.794H52.4008C51.8034 13.794 51.4021 13.892 51.1968 14.088C50.9914 14.2747 50.8888 14.508 50.8888 14.788C50.8888 15.1053 51.0148 15.3573 51.2668 15.544C51.5188 15.7307 51.8688 15.824 52.3168 15.824C52.7461 15.824 53.1288 15.726 53.4648 15.53C53.8101 15.334 54.0574 15.0447 54.2068 14.662L54.5008 15.712C54.3328 16.1507 54.0294 16.4913 53.5908 16.734C53.1614 16.9767 52.6154 17.098 51.9528 17.098ZM60.5127 17.098C59.8874 17.098 59.2854 17.0187 58.7067 16.86C58.1374 16.692 57.6847 16.4913 57.3487 16.258L58.0207 14.928C58.3567 15.1427 58.758 15.32 59.2247 15.46C59.6914 15.6 60.158 15.67 60.6247 15.67C61.1754 15.67 61.572 15.5953 61.8147 15.446C62.0667 15.2967 62.1927 15.096 62.1927 14.844C62.1927 14.6387 62.1087 14.4847 61.9407 14.382C61.7727 14.27 61.5534 14.186 61.2827 14.13C61.012 14.074 60.7087 14.0227 60.3727 13.976C60.046 13.9293 59.7147 13.8687 59.3787 13.794C59.052 13.71 58.7534 13.5933 58.4827 13.444C58.212 13.2853 57.9927 13.0753 57.8247 12.814C57.6567 12.5527 57.5727 12.2073 57.5727 11.778C57.5727 11.302 57.708 10.8913 57.9787 10.546C58.2494 10.1913 58.6274 9.92067 59.1127 9.734C59.6074 9.538 60.1907 9.44 60.8627 9.44C61.3667 9.44 61.8754 9.496 62.3887 9.608C62.902 9.72 63.3267 9.87867 63.6627 10.084L62.9907 11.414C62.636 11.1993 62.2767 11.0547 61.9127 10.98C61.558 10.896 61.2034 10.854 60.8487 10.854C60.3167 10.854 59.92 10.9333 59.6587 11.092C59.4067 11.2507 59.2807 11.4513 59.2807 11.694C59.2807 11.918 59.3647 12.086 59.5327 12.198C59.7007 12.31 59.92 12.3987 60.1907 12.464C60.4614 12.5293 60.76 12.5853 61.0867 12.632C61.4227 12.6693 61.754 12.73 62.0807 12.814C62.4074 12.898 62.706 13.0147 62.9767 13.164C63.2567 13.304 63.4807 13.5047 63.6487 13.766C63.8167 14.0273 63.9007 14.368 63.9007 14.788C63.9007 15.2547 63.7607 15.6607 63.4807 16.006C63.21 16.3513 62.8227 16.622 62.3187 16.818C61.8147 17.0047 61.2127 17.098 60.5127 17.098ZM68.9218 17.098C68.0911 17.098 67.3631 16.9347 66.7378 16.608C66.1218 16.272 65.6411 15.8147 65.2958 15.236C64.9598 14.6573 64.7918 13.9993 64.7918 13.262C64.7918 12.5153 64.9551 11.8573 65.2818 11.288C65.6178 10.7093 66.0751 10.2567 66.6538 9.93C67.2418 9.60333 67.9091 9.44 68.6558 9.44C69.3838 9.44 70.0324 9.59867 70.6018 9.916C71.1711 10.2333 71.6191 10.6813 71.9458 11.26C72.2724 11.8387 72.4358 12.52 72.4358 13.304C72.4358 13.3787 72.4311 13.4627 72.4218 13.556C72.4218 13.6493 72.4171 13.738 72.4078 13.822H66.1778V12.66H71.4838L70.7978 13.024C70.8071 12.5947 70.7184 12.2167 70.5318 11.89C70.3451 11.5633 70.0884 11.3067 69.7618 11.12C69.4444 10.9333 69.0758 10.84 68.6558 10.84C68.2264 10.84 67.8484 10.9333 67.5218 11.12C67.2044 11.3067 66.9524 11.568 66.7658 11.904C66.5884 12.2307 66.4998 12.618 66.4998 13.066V13.346C66.4998 13.794 66.6024 14.1907 66.8078 14.536C67.0131 14.8813 67.3024 15.1473 67.6758 15.334C68.0491 15.5207 68.4784 15.614 68.9638 15.614C69.3838 15.614 69.7618 15.5487 70.0978 15.418C70.4338 15.2873 70.7324 15.082 70.9938 14.802L71.9318 15.88C71.5958 16.272 71.1711 16.5753 70.6578 16.79C70.1538 16.9953 69.5751 17.098 68.9218 17.098ZM76.4268 17.098C75.8014 17.098 75.1994 17.0187 74.6208 16.86C74.0514 16.692 73.5988 16.4913 73.2628 16.258L73.9348 14.928C74.2708 15.1427 74.6721 15.32 75.1388 15.46C75.6054 15.6 76.0721 15.67 76.5388 15.67C77.0894 15.67 77.4861 15.5953 77.7288 15.446C77.9808 15.2967 78.1068 15.096 78.1068 14.844C78.1068 14.6387 78.0228 14.4847 77.8548 14.382C77.6868 14.27 77.4674 14.186 77.1968 14.13C76.9261 14.074 76.6228 14.0227 76.2868 13.976C75.9601 13.9293 75.6288 13.8687 75.2928 13.794C74.9661 13.71 74.6674 13.5933 74.3968 13.444C74.1261 13.2853 73.9068 13.0753 73.7388 12.814C73.5708 12.5527 73.4868 12.2073 73.4868 11.778C73.4868 11.302 73.6221 10.8913 73.8927 10.546C74.1634 10.1913 74.5414 9.92067 75.0267 9.734C75.5214 9.538 76.1048 9.44 76.7768 9.44C77.2808 9.44 77.7894 9.496 78.3028 9.608C78.8161 9.72 79.2408 9.87867 79.5768 10.084L78.9048 11.414C78.5501 11.1993 78.1908 11.0547 77.8268 10.98C77.4721 10.896 77.1174 10.854 76.7628 10.854C76.2308 10.854 75.8341 10.9333 75.5728 11.092C75.3208 11.2507 75.1948 11.4513 75.1948 11.694C75.1948 11.918 75.2788 12.086 75.4468 12.198C75.6148 12.31 75.8341 12.3987 76.1048 12.464C76.3754 12.5293 76.6741 12.5853 77.0008 12.632C77.3368 12.6693 77.6681 12.73 77.9948 12.814C78.3214 12.898 78.6201 13.0147 78.8908 13.164C79.1708 13.304 79.3948 13.5047 79.5628 13.766C79.7308 14.0273 79.8148 14.368 79.8148 14.788C79.8148 15.2547 79.6748 15.6607 79.3948 16.006C79.1241 16.3513 78.7368 16.622 78.2328 16.818C77.7288 17.0047 77.1268 17.098 76.4268 17.098ZM84.1358 17.098C83.3145 17.098 82.6798 16.888 82.2318 16.468C81.7838 16.0387 81.5598 15.4087 81.5598 14.578V7.872H83.3098V14.536C83.3098 14.8907 83.3985 15.166 83.5758 15.362C83.7625 15.558 84.0192 15.656 84.3458 15.656C84.7378 15.656 85.0645 15.5533 85.3258 15.348L85.8158 16.594C85.6105 16.762 85.3585 16.888 85.0598 16.972C84.7612 17.056 84.4532 17.098 84.1358 17.098ZM80.3278 10.98V9.58H85.3118V10.98H80.3278ZM90.4194 17.098C89.7848 17.098 89.2248 16.9813 88.7394 16.748C88.2541 16.5053 87.8761 16.1413 87.6054 15.656C87.3348 15.1613 87.1994 14.5407 87.1994 13.794V9.524H88.9494V13.556C88.9494 14.228 89.0988 14.732 89.3974 15.068C89.7054 15.3947 90.1394 15.558 90.6994 15.558C91.1101 15.558 91.4648 15.474 91.7634 15.306C92.0714 15.138 92.3094 14.886 92.4774 14.55C92.6548 14.214 92.7434 13.7987 92.7434 13.304V9.524H94.4934V17H92.8274V14.984L93.1214 15.6C92.8694 16.0853 92.5008 16.4587 92.0154 16.72C91.5301 16.972 90.9981 17.098 90.4194 17.098ZM99.9487 17.098C99.2301 17.098 98.5814 16.9393 98.0027 16.622C97.4334 16.2953 96.9854 15.8473 96.6587 15.278C96.3321 14.7087 96.1687 14.0367 96.1687 13.262C96.1687 12.4873 96.3321 11.8153 96.6587 11.246C96.9854 10.6767 97.4334 10.2333 98.0027 9.916C98.5814 9.59867 99.2301 9.44 99.9487 9.44C100.574 9.44 101.134 9.58 101.629 9.86C102.123 10.1307 102.515 10.546 102.805 11.106C103.094 11.666 103.239 12.3847 103.239 13.262C103.239 14.13 103.099 14.8487 102.819 15.418C102.539 15.978 102.151 16.398 101.657 16.678C101.162 16.958 100.593 17.098 99.9487 17.098ZM100.159 15.6C100.579 15.6 100.952 15.5067 101.279 15.32C101.615 15.1333 101.881 14.8627 102.077 14.508C102.282 14.1533 102.385 13.738 102.385 13.262C102.385 12.7767 102.282 12.3613 102.077 12.016C101.881 11.6613 101.615 11.3907 101.279 11.204C100.952 11.0173 100.579 10.924 100.159 10.924C99.7387 10.924 99.3607 11.0173 99.0247 11.204C98.6981 11.3907 98.4321 11.6613 98.2267 12.016C98.0307 12.3613 97.9327 12.7767 97.9327 13.262C97.9327 13.738 98.0307 14.1533 98.2267 14.508C98.4321 14.8627 98.6981 15.1333 99.0247 15.32C99.3607 15.5067 99.7387 15.6 100.159 15.6ZM102.427 17V15.236L102.497 13.248L102.357 11.26V6.612H104.093V17H102.427ZM107.012 19.814C106.648 19.814 106.284 19.7533 105.92 19.632C105.556 19.5107 105.253 19.3427 105.01 19.128L105.71 17.84C105.887 17.9987 106.088 18.1247 106.312 18.218C106.536 18.3113 106.765 18.358 106.998 18.358C107.315 18.358 107.572 18.2787 107.768 18.12C107.964 17.9613 108.146 17.6953 108.314 17.322L108.748 16.342L108.888 16.132L111.716 9.524H113.396L109.896 17.602C109.663 18.162 109.401 18.6053 109.112 18.932C108.832 19.2587 108.515 19.4873 108.16 19.618C107.815 19.7487 107.432 19.814 107.012 19.814ZM108.552 17.266L105.178 9.524H106.998L109.742 15.978L108.552 17.266Z" fill="#212121"/>
<path d="M120.063 11.4167C119.821 11.4167 119.625 11.6126 119.625 11.8542C119.625 12.0757 119.79 12.2587 120.003 12.2877L120.063 12.2917H128.229C128.471 12.2917 128.667 12.0958 128.667 11.8542C128.667 11.6327 128.502 11.4497 128.289 11.4207L128.229 11.4167H120.063Z" fill="#212121"/>
<path d="M128.539 11.5448C128.383 11.3895 128.14 11.3754 127.969 11.5025L127.92 11.5448L125.587 13.8782C125.416 14.049 125.416 14.326 125.587 14.4969C125.742 14.6522 125.985 14.6663 126.156 14.5393L126.205 14.4969L128.539 12.1636C128.709 11.9927 128.709 11.7157 128.539 11.5448Z" fill="#212121"/>
<path d="M126.205 9.21151C126.034 9.04066 125.757 9.04066 125.587 9.21151C125.431 9.36684 125.417 9.60989 125.544 9.78116L125.587 9.83023L127.92 12.1636C128.091 12.3344 128.368 12.3344 128.539 12.1636C128.694 12.0082 128.708 11.7652 128.581 11.5939L128.539 11.5448L126.205 9.21151Z" fill="#212121"/>
</svg>
